<svg width="197" height="71" viewBox="0 0 197 71" fill="none" xmlns="http://www.w3.org/2000/svg">
<path d="M41.0469 70.1719C46.1562 70.1719 50.2812 66.1406 50.9844 60.5625L51.4531 56.9062H52.25C58.1094 56.9062 62.4219 53.0156 62.4219 47.7188C62.4219 43.4062 59.375 40.4531 54.2656 40.4531H53.4688L57.0312 11.4375C57.7812 5.20312 55.0625 0.328125 48.1719 0.328125C42.5469 0.328125 39.0781 3.375 34.9531 7.82812L4.10938 41.3438C2.89062 42.6562 0.40625 45.7969 0.40625 49.6875C0.40625 53.7188 3.40625 56.9062 8.60938 56.9062H33.9219L33.4531 60.5625C32.75 66.2344 35.9844 70.1719 41.0469 70.1719ZM24.6875 40.4531L37.7656 25.3594L35.9375 40.4531H24.6875ZM96.1719 70.4062C116.469 70.4062 131.516 52.7812 131.516 29.0625C131.516 11.4375 121.344 0.09375 104.797 0.09375C84.5469 0.09375 69.5 17.7188 69.5 41.4375C69.5 59.0156 79.625 70.4062 96.1719 70.4062ZM89.2812 40.0781C89.2812 26.9062 94.625 17.9531 102.641 17.9531C108.266 17.9531 111.734 21.9375 111.734 30.4219C111.734 43.6406 106.344 52.5469 98.375 52.5469C92.75 52.5469 89.2812 48.6094 89.2812 40.0781ZM175.484 70.1719C180.594 70.1719 184.719 66.1406 185.422 60.5625L185.891 56.9062H186.688C192.547 56.9062 196.859 53.0156 196.859 47.7188C196.859 43.4062 193.812 40.4531 188.703 40.4531H187.906L191.469 11.4375C192.219 5.20312 189.5 0.328125 182.609 0.328125C176.984 0.328125 173.516 3.375 169.391 7.82812L138.547 41.3438C137.328 42.6562 134.844 45.7969 134.844 49.6875C134.844 53.7188 137.844 56.9062 143.047 56.9062H168.359L167.891 60.5625C167.188 66.2344 170.422 70.1719 175.484 70.1719ZM159.125 40.4531L172.203 25.3594L170.375 40.4531H159.125Z" fill="white"/>
</svg>
