<svg width="128" height="128" viewBox="0 0 128 128" fill="none" xmlns="http://www.w3.org/2000/svg">
<circle cx="64" cy="64" r="64" fill="#333333"/>
<path d="M41.7813 86.7812C45.3438 86.7812 48.25 83.9375 48.6875 80.25L50.5625 64.875L55.25 76.125C57.3438 81.1562 58.5313 82.25 61.3438 82.25C64.2188 82.25 65.625 81.1562 68.9688 76.125L76.4062 64.9062L74.5312 80.25C74.0938 83.9375 76.2188 86.7812 79.8125 86.7812C83.3125 86.7812 86.2188 84.0938 86.6875 80.25L90.75 47.125C91.2812 42.9062 88.8125 40.2187 84.9375 40.2187C81.3125 40.2187 79.375 41.9375 76.7188 45.8437L63.4375 65.4375L54.9375 45.8438C53.25 41.9375 51.7188 40.2188 48.0938 40.2188C44.1875 40.2188 41.125 42.9062 40.5938 47.125L36.5313 80.25C36.0625 84.0938 38.3125 86.7812 41.7813 86.7812Z" fill="#51FBAA"/>
</svg>
